<?xml version="1.0" standalone="no"?>
<!DOCTYPE svg PUBLIC "-//W3C//DTD SVG 20010904//EN"
 "http://www.w3.org/TR/2001/REC-SVG-20010904/DTD/svg10.dtd">
<svg version="1.0" xmlns="http://www.w3.org/2000/svg"
 width="260.000000pt" height="260.000000pt" viewBox="0 0 260.000000 260.000000"
 preserveAspectRatio="xMidYMid meet">

<g transform="translate(0.000000,260.000000) scale(0.100000,-0.100000)"
fill="#000000" stroke="none">
<path d="M1195 2484 c-314 -43 -538 -147 -735 -344 -79 -80 -180 -216 -212
-286 -12 -25 -10 -29 16 -48 15 -12 90 -68 165 -126 75 -58 150 -115 167 -127
l31 -22 41 82 c180 360 611 500 962 310 36 -19 74 -43 85 -54 21 -18 22 -17
193 154 l173 173 -72 54 c-137 101 -311 180 -480 215 -72 15 -277 27 -334 19z"/>
<path d="M1316 1494 c-3 -9 -6 -75 -6 -147 1 -102 3 -128 12 -113 7 13 9 56 4
132 -4 72 -2 115 4 119 12 8 13 25 1 25 -5 0 -12 -7 -15 -16z"/>
<path d="M1364 1495 c8 -8 17 -15 20 -15 3 0 3 7 0 15 -4 8 -13 15 -21 15 -12
0 -12 -2 1 -15z"/>
<path d="M1396 1495 c7 -17 24 -20 24 -5 0 6 65 10 175 10 110 0 175 -4 175
-10 0 -5 4 -10 10 -10 5 0 7 7 4 15 -5 13 -37 15 -200 15 -168 0 -193 -2 -188
-15z"/>
<path d="M1796 1495 c7 -17 24 -20 24 -5 0 6 65 10 175 10 110 0 175 -4 175
-10 0 -5 4 -10 10 -10 5 0 7 7 4 15 -5 13 -37 15 -200 15 -168 0 -193 -2 -188
-15z"/>
<path d="M2196 1495 c7 -17 24 -20 24 -5 0 6 36 9 93 8 l92 -2 -90 -6 -90 -7
89 1 c62 1 91 5 94 14 3 9 -23 12 -107 12 -94 0 -110 -2 -105 -15z"/>
<path d="M1336 1481 c-6 -10 -1 -151 10 -236 3 -29 2 -36 -6 -25 -7 11 -9 -10
-8 -70 2 -63 6 -85 16 -85 11 0 13 41 12 205 -1 188 -7 240 -24 211z"/>
<path d="M1513 1483 c48 -2 125 -2 170 0 45 1 6 3 -88 3 -93 0 -130 -2 -82 -3z"/>
<path d="M1913 1483 c48 -2 125 -2 170 0 45 1 6 3 -88 3 -93 0 -130 -2 -82 -3z"/>
<path d="M2404 1344 c-1 -83 1 -114 10 -114 9 0 11 14 6 53 -4 28 -3 54 1 57
9 6 0 108 -10 114 -3 2 -7 -47 -7 -110z"/>
<path d="M2408 1213 c7 -3 16 -2 19 1 4 3 -2 6 -13 5 -11 0 -14 -3 -6 -6z"/>
<path d="M1313 1135 c0 -38 2 -53 4 -32 2 20 2 52 0 70 -2 17 -4 1 -4 -38z"/>
<path d="M2402 1175 c-3 -35 15 -40 20 -5 3 18 0 30 -7 30 -6 0 -12 -11 -13
-25z"/>
<path d="M2407 1123 c-4 -3 -6 -27 -6 -52 l1 -46 9 50 c8 51 7 60 -4 48z"/>
<path d="M1380 1070 c0 -5 5 -10 10 -10 6 0 10 5 10 10 0 6 -4 10 -10 10 -5 0
-10 -4 -10 -10z"/>
<path d="M1420 1070 c0 -12 336 -14 343 -2 3 4 -73 8 -169 9 -109 2 -174 -1
-174 -7z"/>
<path d="M1780 1070 c0 -5 5 -10 10 -10 6 0 10 5 10 10 0 6 -4 10 -10 10 -5 0
-10 -4 -10 -10z"/>
<path d="M1820 1068 c0 -4 23 -8 50 -8 28 0 50 5 50 10 0 7 -20 10 -50 9 -27
-2 -50 -6 -50 -11z"/>
<path d="M1947 1063 c9 -7 13 -13 9 -13 -5 0 -2 -7 5 -16 12 -15 14 -14 21 7
l7 24 -2 -25 c-2 -19 -8 -25 -27 -25 -14 0 -25 -5 -25 -12 0 -6 -3 -15 -7 -19
-5 -4 -8 -18 -8 -31 0 -12 -4 -23 -8 -23 -9 0 -47 -70 -44 -82 1 -3 -5 -11
-13 -18 -7 -6 -11 -19 -8 -27 4 -11 2 -14 -5 -9 -7 4 -12 1 -12 -9 0 -10 -5
-13 -12 -9 -7 4 -10 4 -6 -1 4 -4 3 -15 -4 -22 -9 -11 -9 -17 3 -24 8 -5 10
-9 5 -9 -5 0 -3 -7 4 -15 10 -12 10 -15 -1 -15 -12 0 -12 -2 -1 -9 11 -7 10
-9 -3 -14 -9 -4 -14 -3 -10 2 3 5 -1 12 -7 14 -9 4 -9 6 -1 6 6 1 9 10 6 21
-4 15 -11 19 -27 15 -11 -2 -15 -2 -8 1 7 3 17 15 23 27 11 21 10 21 -14 -2
-15 -13 -24 -29 -20 -34 4 -7 -1 -8 -12 -3 -15 5 -16 4 -5 -9 11 -13 10 -14
-4 -9 -33 13 -14 -12 36 -46 29 -19 61 -43 71 -53 12 -12 25 -16 40 -11 19 6
20 5 9 -9 -13 -15 -4 -28 23 -33 6 -1 39 -29 74 -63 36 -33 68 -58 73 -55 4 3
8 0 8 -7 0 -8 7 -5 20 6 11 10 17 22 14 26 -3 5 2 9 11 9 8 0 19 8 22 18 4 9
13 22 21 28 8 6 12 17 9 25 -4 11 -6 11 -6 -1 -1 -13 -15 -15 -77 -14 -82 2
-91 7 -88 52 l2 29 -64 1 c-35 0 -71 1 -79 1 -8 1 -15 10 -15 22 0 13 -4 18
-12 13 -7 -5 -8 -3 -2 7 11 17 13 99 2 93 -4 -3 -8 2 -8 10 0 9 3 15 8 13 4
-1 8 3 10 8 7 21 44 26 57 8 8 -10 17 -14 22 -10 4 5 1 14 -9 21 -11 8 -14 21
-11 40 4 20 2 27 -6 22 -6 -4 -11 -16 -11 -27 0 -10 -5 -19 -11 -19 -7 0 -8 7
-4 18 4 9 8 22 8 29 0 7 5 9 10 6 6 -4 7 -1 2 8 -7 12 -6 12 7 1 9 -8 19 -26
21 -40 2 -15 4 -5 3 21 0 27 -2 44 -4 38 -2 -6 -8 -9 -13 -5 -12 7 8 44 25 44
8 0 21 10 30 23 l17 22 -5 -22 c-2 -13 0 -23 5 -23 5 0 9 6 9 13 0 8 4 7 11
-3 9 -12 9 -11 3 5 -8 20 -8 42 0 106 4 36 3 36 -30 35 -30 -1 -32 -3 -17 -13z
m13 -72 c0 -10 -8 -25 -17 -32 -16 -13 -17 -12 -4 3 7 10 11 25 7 33 -3 8 -1
15 4 15 6 0 10 -8 10 -19z m-187 -301 c-10 -11 -18 -20 -19 -20 -1 0 0 9 3 20
3 11 12 20 19 20 11 0 10 -5 -3 -20z m207 -145 c-5 -13 -6 -26 -3 -29 4 -3 1
-6 -6 -6 -9 0 -11 8 -7 24 8 31 -5 39 -38 26 -16 -6 -27 -6 -31 0 -4 6 4 10
17 10 13 0 30 4 38 10 22 14 41 -7 30 -35z m147 -57 c1 -10 -1 -17 -5 -16 -4
1 -15 -2 -25 -7 -10 -4 -24 -2 -33 6 -14 12 -14 14 2 26 24 18 60 13 61 -9z
m-62 -39 c4 -6 14 -8 22 -5 8 3 11 2 8 -3 -3 -6 -14 -9 -25 -8 -10 1 -17 4
-14 8 2 4 -2 10 -8 12 -9 4 -10 6 -1 6 6 1 15 -4 18 -10z"/>
<path d="M2076 491 c-15 -6 -16 -10 -7 -15 8 -5 20 -2 29 8 17 17 9 19 -22 7z"/>
<path d="M2323 912 c1 -64 4 -89 13 -89 10 0 10 5 3 19 -6 11 -8 26 -5 34 6
16 26 19 26 3 0 -5 -4 -7 -10 -4 -5 3 -10 -1 -10 -9 0 -16 19 -23 21 -8 8 54
7 62 -9 60 -14 -3 -17 5 -15 40 1 23 -2 42 -6 42 -5 0 -8 -40 -8 -88z"/>
<path d="M2346 969 c-9 -47 -8 -51 15 -39 17 10 18 14 7 28 -11 13 -11 15 5 9
11 -4 17 -1 17 9 0 8 -4 12 -10 9 -5 -3 -10 -1 -10 4 0 24 -18 9 -24 -20z"/>
<path d="M2323 795 c0 -8 4 -12 9 -9 4 3 8 9 8 15 0 5 -4 9 -8 9 -5 0 -9 -7
-9 -15z"/>
<path d="M2245 721 c0 -30 3 -37 15 -33 11 4 10 -1 -4 -16 -11 -12 -16 -25
-13 -29 4 -3 7 -1 7 6 0 7 5 9 13 5 6 -4 9 -4 5 1 -4 4 2 21 13 36 11 16 18
29 14 29 -3 0 0 10 6 23 12 22 12 22 -9 4 -11 -11 -18 -25 -15 -33 4 -10 0
-12 -11 -8 -14 5 -14 8 1 30 14 22 14 24 -3 24 -15 0 -19 -8 -19 -39z"/>
<path d="M2166 586 c3 -9 10 -16 15 -16 5 0 9 -4 9 -10 0 -5 -8 -7 -17 -4 -15
5 -16 4 -3 -5 22 -15 60 23 42 41 -11 11 -12 9 -6 -6 7 -18 6 -18 -20 -1 -23
16 -26 16 -20 1z"/>
</g>
</svg>
